<svg xmlns="http://www.w3.org/2000/svg" viewBox="0 0 64 64">
  <defs>
    <linearGradient id="bg" x1="0" y1="0" x2="1" y2="1">
      <stop offset="0%" stop-color="#1a7a8a"/>
      <stop offset="100%" stop-color="#0e5460"/>
    </linearGradient>
    <linearGradient id="sun" x1="0" y1="0" x2="0" y2="1">
      <stop offset="0%" stop-color="#e0b87a"/>
      <stop offset="100%" stop-color="#c8965a"/>
    </linearGradient>
  </defs>
  <rect width="64" height="64" rx="14" fill="url(#bg)"/>
  <!-- Sea waves -->
  <path d="M0 38 Q8 34 16 38 T32 38 T48 38 T64 38 V64 H0Z" fill="rgba(255,255,255,.12)"/>
  <path d="M0 42 Q8 38 16 42 T32 42 T48 42 T64 42 V64 H0Z" fill="rgba(255,255,255,.08)"/>
  <!-- Sun -->
  <circle cx="32" cy="24" r="10" fill="url(#sun)"/>
  <!-- Sun rays -->
  <g stroke="#e0b87a" stroke-width="1.5" stroke-linecap="round" opacity=".6">
    <line x1="32" y1="10" x2="32" y2="7"/>
    <line x1="32" y1="38" x2="32" y2="41"/>
    <line x1="18" y1="24" x2="15" y2="24"/>
    <line x1="46" y1="24" x2="49" y2="24"/>
    <line x1="22.1" y1="14.1" x2="20" y2="12"/>
    <line x1="41.9" y1="14.1" x2="44" y2="12"/>
    <line x1="22.1" y1="33.9" x2="20" y2="36"/>
    <line x1="41.9" y1="33.9" x2="44" y2="36"/>
  </g>
  <!-- GR text -->
  <text x="32" y="56" text-anchor="middle" font-family="Georgia,serif" font-size="11" font-weight="600" fill="rgba(255,255,255,.7)" letter-spacing="3">GR</text>
</svg>